<?xml version="1.0" encoding="UTF-8" standalone="no"?>
<!DOCTYPE svg PUBLIC "-//W3C//DTD SVG 1.1//EN"
 "http://www.w3.org/Graphics/SVG/1.1/DTD/svg11.dtd">
<!-- Generated by graphviz version 2.44.1 (0)
 -->
<!-- Pages: 1 -->
<svg width="896pt" height="243pt"
 viewBox="0.00 0.00 896.37 243.34" xmlns="http://www.w3.org/2000/svg" xmlns:xlink="http://www.w3.org/1999/xlink">
<g id="graph0" class="graph" transform="scale(1 1) rotate(0) translate(4 239.34)">
<polygon fill="white" stroke="transparent" points="-4,4 -4,-239.34 892.37,-239.34 892.37,4 -4,4"/>
<!-- begin -->
<g id="node1" class="node">
<title>begin</title>
<ellipse fill="none" stroke="black" cx="36.4" cy="-36.4" rx="36.29" ry="36.29"/>
<text text-anchor="middle" x="36.4" y="-32.7" font-family="Times,serif" font-size="14.00">begin</text>
</g>
<!-- 1 -->
<g id="node3" class="node">
<title>1</title>
<ellipse fill="none" stroke="black" cx="139.79" cy="-66.4" rx="18" ry="18"/>
<text text-anchor="middle" x="139.79" y="-62.7" font-family="Times,serif" font-size="14.00">1</text>
</g>
<!-- begin&#45;&gt;1 -->
<g id="edge1" class="edge">
<title>begin&#45;&gt;1</title>
<path fill="none" stroke="black" d="M71.44,-46.47C84.84,-50.43 99.98,-54.91 112.5,-58.62"/>
<polygon fill="black" stroke="black" points="111.73,-62.04 122.32,-61.52 113.72,-55.33 111.73,-62.04"/>
<text text-anchor="middle" x="97.29" y="-60.2" font-family="Times,serif" font-size="14.00">&gt;</text>
</g>
<!-- end -->
<g id="node7" class="node">
<title>end</title>
<ellipse fill="none" stroke="black" cx="860.42" cy="-36.4" rx="27.9" ry="27.9"/>
<text text-anchor="middle" x="860.42" y="-32.7" font-family="Times,serif" font-size="14.00">end</text>
</g>
<!-- begin&#45;&gt;end -->
<g id="edge11" class="edge">
<title>begin&#45;&gt;end</title>
<path fill="none" stroke="black" d="M71.91,-28.21C91.42,-24.27 116.34,-20.4 138.79,-20.4 138.79,-20.4 138.79,-20.4 747.48,-20.4 772.9,-20.4 801.25,-24.49 823.05,-28.54"/>
<polygon fill="black" stroke="black" points="822.4,-31.98 832.89,-30.44 823.73,-25.1 822.4,-31.98"/>
<text text-anchor="middle" x="440.59" y="-24.2" font-family="Times,serif" font-size="14.00">EOF</text>
</g>
<!-- 2 -->
<g id="node2" class="node">
<title>2</title>
<ellipse fill="none" stroke="black" cx="378.59" cy="-146.4" rx="18" ry="18"/>
<text text-anchor="middle" x="378.59" y="-142.7" font-family="Times,serif" font-size="14.00">2</text>
</g>
<!-- sequence -->
<g id="node6" class="node">
<title>sequence</title>
<ellipse fill="none" stroke="black" cx="538.53" cy="-148.4" rx="53.89" ry="53.89"/>
<text text-anchor="middle" x="538.53" y="-144.7" font-family="Times,serif" font-size="14.00">sequence</text>
</g>
<!-- 2&#45;&gt;sequence -->
<g id="edge4" class="edge">
<title>2&#45;&gt;sequence</title>
<path fill="none" stroke="black" d="M396.79,-146.61C415.37,-146.85 446.09,-147.24 474.1,-147.59"/>
<polygon fill="black" stroke="black" points="474.22,-151.1 484.27,-147.72 474.31,-144.1 474.22,-151.1"/>
<text text-anchor="middle" x="440.59" y="-151.2" font-family="Times,serif" font-size="14.00">[ACGT]</text>
</g>
<!-- header -->
<g id="node5" class="node">
<title>header</title>
<ellipse fill="none" stroke="black" cx="267.69" cy="-140.4" rx="42.79" ry="42.79"/>
<text text-anchor="middle" x="267.69" y="-136.7" font-family="Times,serif" font-size="14.00">header</text>
</g>
<!-- 1&#45;&gt;header -->
<g id="edge2" class="edge">
<title>1&#45;&gt;header</title>
<path fill="none" stroke="black" d="M155.73,-75.18C171.9,-84.68 198.48,-100.3 221.57,-113.88"/>
<polygon fill="black" stroke="black" points="219.83,-116.91 230.22,-118.96 223.38,-110.88 219.83,-116.91"/>
<text text-anchor="middle" x="191.29" y="-107.2" font-family="Times,serif" font-size="14.00">[a&#45;z]</text>
</g>
<!-- 3 -->
<g id="node4" class="node">
<title>3</title>
<ellipse fill="none" stroke="black" cx="660.48" cy="-66.4" rx="18" ry="18"/>
<text text-anchor="middle" x="660.48" y="-62.7" font-family="Times,serif" font-size="14.00">3</text>
</g>
<!-- 3&#45;&gt;1 -->
<g id="edge8" class="edge">
<title>3&#45;&gt;1</title>
<path fill="none" stroke="black" d="M642.39,-66.4C619.13,-66.4 576.18,-66.4 539.53,-66.4 266.69,-66.4 266.69,-66.4 266.69,-66.4 232.65,-66.4 193.43,-66.4 167.93,-66.4"/>
<polygon fill="black" stroke="black" points="167.9,-62.9 157.9,-66.4 167.9,-69.9 167.9,-62.9"/>
<text text-anchor="middle" x="378.59" y="-70.2" font-family="Times,serif" font-size="14.00">&gt;</text>
</g>
<!-- 4 -->
<g id="node8" class="node">
<title>4</title>
<ellipse fill="none" stroke="black" cx="746.48" cy="-66.4" rx="18" ry="18"/>
<text text-anchor="middle" x="746.48" y="-62.7" font-family="Times,serif" font-size="14.00">4</text>
</g>
<!-- 3&#45;&gt;4 -->
<g id="edge9" class="edge">
<title>3&#45;&gt;4</title>
<path fill="none" stroke="black" d="M678.88,-66.4C690.22,-66.4 705.25,-66.4 718.16,-66.4"/>
<polygon fill="black" stroke="black" points="718.38,-69.9 728.38,-66.4 718.38,-62.9 718.38,-69.9"/>
<text text-anchor="middle" x="703.48" y="-70.2" font-family="Times,serif" font-size="14.00">\n</text>
</g>
<!-- header&#45;&gt;2 -->
<g id="edge5" class="edge">
<title>header&#45;&gt;2</title>
<path fill="none" stroke="black" d="M310.79,-142.72C324.08,-143.45 338.4,-144.24 350.37,-144.9"/>
<polygon fill="black" stroke="black" points="350.41,-148.4 360.59,-145.46 350.8,-141.42 350.41,-148.4"/>
<text text-anchor="middle" x="335.59" y="-148.2" font-family="Times,serif" font-size="14.00">\n</text>
</g>
<!-- header&#45;&gt;header -->
<g id="edge3" class="edge">
<title>header&#45;&gt;header</title>
<path fill="none" stroke="black" d="M255.41,-181.67C256.05,-192.81 260.15,-201.29 267.69,-201.29 272.76,-201.29 276.27,-197.47 278.22,-191.57"/>
<polygon fill="black" stroke="black" points="281.68,-192.12 279.97,-181.67 274.79,-190.9 281.68,-192.12"/>
<text text-anchor="middle" x="267.69" y="-205.09" font-family="Times,serif" font-size="14.00">[a&#45;z]</text>
</g>
<!-- sequence&#45;&gt;3 -->
<g id="edge7" class="edge">
<title>sequence&#45;&gt;3</title>
<path fill="none" stroke="black" d="M583.51,-118.33C601.45,-106.06 621.45,-92.39 636.42,-82.16"/>
<polygon fill="black" stroke="black" points="638.75,-84.8 645.03,-76.27 634.8,-79.02 638.75,-84.8"/>
<text text-anchor="middle" x="617.48" y="-101.2" font-family="Times,serif" font-size="14.00">\n</text>
</g>
<!-- sequence&#45;&gt;sequence -->
<g id="edge6" class="edge">
<title>sequence&#45;&gt;sequence</title>
<path fill="none" stroke="black" d="M524.3,-200.46C525.64,-211.96 530.38,-220.34 538.53,-220.34 544.01,-220.34 547.95,-216.56 550.35,-210.59"/>
<polygon fill="black" stroke="black" points="553.85,-211 552.76,-200.46 547.04,-209.37 553.85,-211"/>
<text text-anchor="middle" x="538.53" y="-224.14" font-family="Times,serif" font-size="14.00">[ACGT]</text>
</g>
<!-- 4&#45;&gt;end -->
<g id="edge10" class="edge">
<title>4&#45;&gt;end</title>
<path fill="none" stroke="black" d="M763.99,-61.97C779.6,-57.79 803.54,-51.37 823.54,-46.01"/>
<polygon fill="black" stroke="black" points="824.52,-49.37 833.27,-43.4 822.71,-42.61 824.52,-49.37"/>
<text text-anchor="middle" x="798.48" y="-61.2" font-family="Times,serif" font-size="14.00">EOF</text>
</g>
</g>
</svg>
